# xmcd
#
# Track frame offsets:
#	150
#	14776
#	28263
#	38915
#	56541
#	66961
#	79738
#	91073
#	105001
#	119428
#	134444
#	148454
#	159565
#	172046
#	182462
#	196732
#	218901
#
# Disc length: 2922 seconds
#
# Revision: 1
# Processed by: cddbd v1.5.2PL0 Copyright (c) Steve Scherf et al.
# Submitted via: audiograbber 1.83.01
#
DISCID=f00b6811
DTITLE=Chartbuster - 5030-03 Vol. 2
DYEAR=2005
DGENRE=Karaoke
TTITLE0=Grandpa Jones - Mountian Dew
TTITLE1=Wanda Jackson - Right Or Wrong
TTITLE2=Leroy Van Dyke - Walk On By
TTITLE3=Marty Robbins - Don't Worry
TTITLE4=Jean Shepard - Second Fiddle (To An Old Guitar)
TTITLE5=Ray Price - Heartaches By The Number
TTITLE6=Stonewall Jackson - Waterloo
TTITLE7=Pasy Cline - She's Got You
TTITLE8=Marty Robbins - Devil Woman
TTITLE9=Jimmy Dean - Big Bad John
TTITLE10=Wanda Jackson - The Window Up Above
TTITLE11=Cowboy Copas - Alabam
TTITLE12=Ferlin Husky - Wings Of A Dove
TTITLE13=Pasy Cline - Blue Moon Of Kentucky
TTITLE14=Kitty Wells and Red Foley - One By One
TTITLE15=Hank Snow - I've Been Everywhere
TTITLE16=Data - Track 
EXTD=
EXTT0=
EXTT1=
EXTT2=
EXTT3=
EXTT4=
EXTT5=
EXTT6=
EXTT7=
EXTT8=
EXTT9=
EXTT10=
EXTT11=
EXTT12=
EXTT13=
EXTT14=
EXTT15=
EXTT16=
PLAYORDER=
